<svg width="528" height="111" viewBox="0 0 528 111" fill="none" xmlns="http://www.w3.org/2000/svg">
<rect width="528" height="110.913" fill="white"/>
<path d="M146.008 81.5271C145.488 81.5271 145.046 81.345 144.682 80.9808C144.317 80.6166 144.135 80.1744 144.135 79.6541V27.99C144.135 27.4177 144.317 26.9755 144.682 26.6633C145.046 26.2991 145.488 26.117 146.008 26.117H152.486C153.006 26.117 153.448 26.2991 153.812 26.6633C154.177 27.0275 154.359 27.4697 154.359 27.99V54.6805L167.314 42.2718C167.47 42.1677 167.704 41.9856 168.016 41.7255C168.38 41.4133 168.719 41.2052 169.031 41.1011C169.343 40.9971 169.733 40.9451 170.201 40.9451H177.615C178.136 40.9451 178.552 41.1011 178.864 41.4133C179.176 41.7255 179.332 42.1417 179.332 42.662C179.332 43.1302 179.072 43.5985 178.552 44.0668L162.631 59.1289L180.503 78.4834C180.971 78.9517 181.205 79.3939 181.205 79.8102C181.205 80.3304 181.049 80.7467 180.737 81.0588C180.425 81.371 180.035 81.5271 179.566 81.5271H171.996C171.268 81.5271 170.722 81.449 170.357 81.293C170.045 81.0849 169.629 80.7207 169.109 80.2004L154.359 64.5139V79.6541C154.359 80.1744 154.177 80.6166 153.812 80.9808C153.448 81.345 153.006 81.5271 152.486 81.5271H146.008Z" fill="#742A2A"/>
<path d="M185.869 81.5271C185.349 81.5271 184.906 81.345 184.542 80.9808C184.178 80.6166 183.996 80.1744 183.996 79.6541V42.8181C183.996 42.2458 184.178 41.8035 184.542 41.4914C184.906 41.1272 185.349 40.9451 185.869 40.9451H192.346C192.919 40.9451 193.361 41.1272 193.673 41.4914C194.037 41.8035 194.22 42.2458 194.22 42.8181V46.0178C197.393 42.1157 201.738 40.1646 207.253 40.1646C212.039 40.1646 215.837 41.7255 218.647 44.8472C221.456 47.9689 222.861 52.2612 222.861 57.7242V79.6541C222.861 80.1744 222.679 80.6166 222.315 80.9808C222.003 81.345 221.56 81.5271 220.988 81.5271H213.964C213.444 81.5271 213.002 81.345 212.638 80.9808C212.273 80.6166 212.091 80.1744 212.091 79.6541V58.1924C212.091 55.1748 211.337 52.8335 209.828 51.1686C208.371 49.4517 206.264 48.5932 203.507 48.5932C200.853 48.5932 198.72 49.4517 197.107 51.1686C195.494 52.8855 194.688 55.2268 194.688 58.1924V79.6541C194.688 80.1744 194.506 80.6166 194.141 80.9808C193.829 81.345 193.387 81.5271 192.815 81.5271H185.869Z" fill="#742A2A"/>
<path d="M244.713 82.3075C239.926 82.3075 236.154 80.7467 233.397 77.625C230.639 74.5033 229.261 70.2109 229.261 64.748V42.8181C229.261 42.2458 229.443 41.8035 229.807 41.4914C230.171 41.1272 230.613 40.9451 231.134 40.9451H238.157C238.678 40.9451 239.12 41.1272 239.484 41.4914C239.848 41.8556 240.03 42.2978 240.03 42.8181V64.2797C240.03 70.6792 242.814 73.8789 248.381 73.8789C251.086 73.8789 253.22 73.0205 254.78 71.3035C256.393 69.5866 257.2 67.2453 257.2 64.2797V42.8181C257.2 42.2458 257.382 41.8035 257.746 41.4914C258.11 41.1272 258.552 40.9451 259.073 40.9451H266.018C266.591 40.9451 267.033 41.1272 267.345 41.4914C267.709 41.8035 267.892 42.2458 267.892 42.8181V79.6541C267.892 80.1744 267.709 80.6166 267.345 80.9808C267.033 81.345 266.591 81.5271 266.018 81.5271H259.541C259.021 81.5271 258.578 81.345 258.214 80.9808C257.85 80.6166 257.668 80.1744 257.668 79.6541V76.4543C254.806 80.3565 250.488 82.3075 244.713 82.3075Z" fill="#742A2A"/>
<path d="M276.95 81.5271C276.43 81.5271 275.987 81.345 275.623 80.9808C275.259 80.6166 275.077 80.1744 275.077 79.6541V42.8961C275.077 42.3238 275.259 41.8556 275.623 41.4914C275.987 41.1272 276.43 40.9451 276.95 40.9451H283.349C283.922 40.9451 284.39 41.1272 284.754 41.4914C285.118 41.8556 285.3 42.3238 285.3 42.8961V46.0959C287.902 42.662 291.648 40.9451 296.539 40.9451H299.816C300.389 40.9451 300.831 41.1272 301.143 41.4914C301.507 41.8035 301.689 42.2458 301.689 42.8181V48.5152C301.689 49.0354 301.507 49.4777 301.143 49.8419C300.831 50.2061 300.389 50.3882 299.816 50.3882H293.651C291.206 50.3882 289.281 51.0906 287.876 52.4953C286.471 53.9001 285.769 55.8251 285.769 58.2705V79.6541C285.769 80.1744 285.587 80.6166 285.222 80.9808C284.858 81.345 284.416 81.5271 283.896 81.5271H276.95Z" fill="#742A2A"/>
<path d="M306.602 81.5271C306.081 81.5271 305.639 81.345 305.275 80.9808C304.911 80.6166 304.729 80.1744 304.729 79.6541V27.99C304.729 27.4177 304.911 26.9755 305.275 26.6633C305.639 26.2991 306.081 26.117 306.602 26.117H313.157C313.73 26.117 314.172 26.2991 314.484 26.6633C314.848 26.9755 315.03 27.4177 315.03 27.99V79.6541C315.03 80.1744 314.848 80.6166 314.484 80.9808C314.172 81.345 313.73 81.5271 313.157 81.5271H306.602Z" fill="#742A2A"/>
<path d="M323.82 34.3115C323.3 34.3115 322.857 34.1294 322.493 33.7652C322.129 33.401 321.947 32.9587 321.947 32.4384V26.7413C321.947 26.169 322.129 25.7008 322.493 25.3366C322.857 24.9724 323.3 24.7903 323.82 24.7903H331C331.572 24.7903 332.04 24.9724 332.404 25.3366C332.769 25.7008 332.951 26.169 332.951 26.7413V32.4384C332.951 32.9587 332.743 33.401 332.326 33.7652C331.962 34.1294 331.52 34.3115 331 34.3115H323.82ZM324.132 81.5271C323.612 81.5271 323.169 81.345 322.805 80.9808C322.441 80.6166 322.259 80.1744 322.259 79.6541V42.8181C322.259 42.2458 322.441 41.8035 322.805 41.4914C323.169 41.1272 323.612 40.9451 324.132 40.9451H330.766C331.286 40.9451 331.728 41.1272 332.092 41.4914C332.457 41.8556 332.639 42.2978 332.639 42.8181V79.6541C332.639 80.1744 332.457 80.6166 332.092 80.9808C331.728 81.345 331.286 81.5271 330.766 81.5271H324.132Z" fill="#742A2A"/>
<path d="M341.664 81.5271C341.144 81.5271 340.702 81.345 340.337 80.9808C339.973 80.6166 339.791 80.1744 339.791 79.6541V42.8181C339.791 42.2458 339.973 41.8035 340.337 41.4914C340.702 41.1272 341.144 40.9451 341.664 40.9451H348.142C348.714 40.9451 349.156 41.1272 349.468 41.4914C349.833 41.8035 350.015 42.2458 350.015 42.8181V46.0178C353.188 42.1157 357.533 40.1646 363.048 40.1646C367.834 40.1646 371.632 41.7255 374.442 44.8472C377.251 47.9689 378.656 52.2612 378.656 57.7242V79.6541C378.656 80.1744 378.474 80.6166 378.11 80.9808C377.798 81.345 377.355 81.5271 376.783 81.5271H369.759C369.239 81.5271 368.797 81.345 368.433 80.9808C368.068 80.6166 367.886 80.1744 367.886 79.6541V58.1924C367.886 55.1748 367.132 52.8335 365.623 51.1686C364.166 49.4517 362.059 48.5932 359.302 48.5932C356.648 48.5932 354.515 49.4517 352.902 51.1686C351.289 52.8855 350.483 55.2268 350.483 58.1924V79.6541C350.483 80.1744 350.301 80.6166 349.937 80.9808C349.624 81.345 349.182 81.5271 348.61 81.5271H341.664Z" fill="#742A2A"/>
<path d="M403.786 98.6964C399.155 98.6964 395.409 97.916 392.548 96.3551C389.686 94.8463 387.657 93.1034 386.46 91.1263C385.264 89.1492 384.665 87.4583 384.665 86.0535C384.665 85.5333 384.848 85.091 385.212 84.7268C385.576 84.4147 386.018 84.2586 386.538 84.2586H393.484C393.952 84.2586 394.343 84.3626 394.655 84.5707C395.019 84.8309 395.305 85.2731 395.513 85.8975C396.086 87.2502 396.944 88.3948 398.089 89.3313C399.233 90.3199 401.002 90.8141 403.396 90.8141C406.517 90.8141 408.807 90.1118 410.263 88.707C411.72 87.3543 412.449 84.961 412.449 81.5271V76.2202C409.639 79.55 405.659 81.2149 400.508 81.2149C395.097 81.2149 391.013 79.576 388.255 76.2983C385.55 73.0205 384.093 68.546 383.885 62.875L383.807 60.7678L383.885 58.6607C384.093 53.0937 385.576 48.6192 388.333 45.2374C391.091 41.8556 395.149 40.1646 400.508 40.1646C403.266 40.1646 405.685 40.6849 407.766 41.7255C409.847 42.766 411.564 44.1708 412.917 45.9398V42.8961C412.917 42.3238 413.099 41.8556 413.463 41.4914C413.879 41.1272 414.348 40.9451 414.868 40.9451H421.267C421.788 40.9451 422.23 41.1272 422.594 41.4914C422.958 41.8556 423.14 42.3238 423.14 42.8961L423.218 80.5125C423.218 86.2877 421.606 90.7621 418.38 93.9358C415.154 97.1096 410.289 98.6964 403.786 98.6964ZM403.474 72.9424C406.387 72.9424 408.572 72.0059 410.029 70.1329C411.486 68.2599 412.292 65.9706 412.449 63.2652C412.501 62.8489 412.527 62.0165 412.527 60.7678C412.527 59.5191 412.501 58.6867 412.449 58.2705C412.292 55.565 411.486 53.2758 410.029 51.4027C408.572 49.5297 406.387 48.5932 403.474 48.5932C397.855 48.5932 394.889 52.0271 394.577 58.8948L394.499 60.7678C394.499 68.8842 397.49 72.9424 403.474 72.9424Z" fill="#742A2A"/>
<path d="M431.976 62.6408C431.455 62.6408 431.013 62.4587 430.649 62.0945C430.285 61.7303 430.103 61.2881 430.103 60.7678V55.4609C430.103 54.9407 430.285 54.4984 430.649 54.1342C431.013 53.77 431.455 53.5879 431.976 53.5879H456.013C456.585 53.5879 457.027 53.77 457.339 54.1342C457.704 54.4464 457.886 54.8886 457.886 55.4609V60.7678C457.886 61.2881 457.704 61.7303 457.339 62.0945C456.975 62.4587 456.533 62.6408 456.013 62.6408H431.976Z" fill="#742A2A"/>
<path d="M466.663 81.5271C466.143 81.5271 465.7 81.345 465.336 80.9808C464.972 80.6166 464.79 80.1744 464.79 79.6541V42.8961C464.79 42.3238 464.972 41.8556 465.336 41.4914C465.7 41.1272 466.143 40.9451 466.663 40.9451H473.062C473.635 40.9451 474.103 41.1272 474.467 41.4914C474.831 41.8556 475.013 42.3238 475.013 42.8961V46.0959C477.615 42.662 481.361 40.9451 486.252 40.9451H489.529C490.102 40.9451 490.544 41.1272 490.856 41.4914C491.22 41.8035 491.402 42.2458 491.402 42.8181V48.5152C491.402 49.0354 491.22 49.4777 490.856 49.8419C490.544 50.2061 490.102 50.3882 489.529 50.3882H483.364C480.919 50.3882 478.994 51.0906 477.589 52.4953C476.184 53.9001 475.482 55.8251 475.482 58.2705V79.6541C475.482 80.1744 475.3 80.6166 474.935 80.9808C474.571 81.345 474.129 81.5271 473.609 81.5271H466.663Z" fill="#742A2A"/>
<path d="M509.816 82.3075C505.862 82.3075 502.558 81.7092 499.905 80.5125C497.251 79.3159 495.274 77.9371 493.974 76.3763C492.725 74.7634 492.101 73.3847 492.101 72.24C492.101 71.7198 492.257 71.3035 492.569 70.9914C492.933 70.6792 493.349 70.5231 493.817 70.5231H500.217C500.633 70.5231 500.997 70.7312 501.31 71.1475C501.57 71.3556 502.142 71.8498 503.026 72.6303C503.963 73.4107 505.004 74.035 506.148 74.5033C507.345 74.9195 508.645 75.1276 510.05 75.1276C512.131 75.1276 513.822 74.7374 515.123 73.957C516.424 73.1245 517.074 71.9539 517.074 70.4451C517.074 69.4045 516.762 68.5721 516.138 67.9477C515.565 67.2714 514.499 66.673 512.938 66.1527C511.429 65.5804 509.14 64.9561 506.07 64.2797C501.648 63.3432 498.37 61.9124 496.237 59.9874C494.156 58.0624 493.115 55.513 493.115 52.3392C493.115 50.2581 493.739 48.3071 494.988 46.4861C496.237 44.613 498.084 43.1042 500.529 41.9596C503.026 40.763 505.992 40.1646 509.426 40.1646C512.964 40.1646 516.007 40.7369 518.557 41.8816C521.106 42.9742 523.031 44.3009 524.332 45.8617C525.685 47.4226 526.361 48.8013 526.361 49.998C526.361 50.4662 526.179 50.8825 525.815 51.2466C525.503 51.5588 525.112 51.7149 524.644 51.7149H518.791C518.219 51.7149 517.776 51.5068 517.464 51.0906C517.1 50.8304 516.502 50.3622 515.669 49.6858C514.889 48.9574 514.004 48.3851 513.016 47.9689C512.027 47.5526 510.831 47.3445 509.426 47.3445C507.501 47.3445 506.018 47.7608 504.978 48.5932C503.937 49.4257 503.417 50.5183 503.417 51.871C503.417 52.8075 503.651 53.5879 504.119 54.2123C504.639 54.8366 505.654 55.4349 507.163 56.0072C508.672 56.5275 510.935 57.0738 513.952 57.6461C523.317 59.4671 528 63.5513 528 69.8988C528 73.5928 526.387 76.5844 523.161 78.8736C519.988 81.1629 515.539 82.3075 509.816 82.3075Z" fill="#742A2A"/>
<path d="M43.1255 78.6143L50.1415 90.2293C45.9006 89.765 41.8876 88.5426 38.241 86.7007L43.1255 78.6143Z" fill="#E53E3E"/>
<path d="M69.9179 86.6117C69.8596 86.6415 69.8013 86.6712 69.7429 86.7007L64.8583 78.6143L57.8423 90.2293C62.1512 89.7575 66.2248 88.5033 69.9179 86.6117Z" fill="#E53E3E"/>
<path d="M80.9862 77.7085C80.8766 77.8414 80.766 77.9734 80.6544 78.1046L83.4687 73.4456L75.7246 60.6252L67.9805 73.4456L74.3154 83.9331C76.8012 82.1559 79.0445 80.0613 80.9862 77.7085Z" fill="#E53E3E"/>
<path d="M61.7361 73.4456L53.992 60.6252L46.2479 73.4456L53.992 86.266L61.7361 73.4456Z" fill="#E53E3E"/>
<path d="M33.6685 83.9331L40.0034 73.4456L32.2593 60.6252L24.5152 73.4456L27.3294 78.1045C29.1934 80.2968 31.323 82.2562 33.6685 83.9331Z" fill="#E53E3E"/>
<path d="M38.241 24.212L43.1256 32.2984L50.1416 20.6833C45.9007 21.1476 41.8876 22.37 38.241 24.212Z" fill="#E53E3E"/>
<path d="M57.8423 20.6833L64.8584 32.2984L69.743 24.212C66.0963 22.37 62.0833 21.1476 57.8423 20.6833Z" fill="#E53E3E"/>
<path d="M74.3155 26.9792L67.9805 37.4668L75.7246 50.2872L83.4687 37.4668L80.6542 32.8075C78.7902 30.6153 76.6608 28.6561 74.3155 26.9792Z" fill="#E53E3E"/>
<path d="M46.2479 37.4673L53.992 24.647L61.7361 37.4673L53.992 50.2877L46.2479 37.4673Z" fill="#E53E3E"/>
<path d="M27.3296 32.8076L24.5152 37.4668L32.2593 50.2872L40.0034 37.4668L33.6684 26.9792C31.3231 28.6561 29.1936 30.6155 27.3296 32.8076Z" fill="#E53E3E"/>
<path d="M21.4173 68.2362L29.1371 55.4561L21.4173 42.676C19.8629 46.6349 19.0094 50.9458 19.0094 55.4561C19.0094 59.9664 19.8629 64.2773 21.4173 68.2362Z" fill="#E53E3E"/>
<path d="M86.5662 68.2368C88.1206 64.2779 88.9742 59.9669 88.9742 55.4566C88.9742 50.9284 88.1138 46.6012 86.5477 42.6294C86.5539 42.6451 86.5601 42.6608 86.5662 42.6765L78.8464 55.4566L86.5662 68.2368Z" fill="#E53E3E"/>
<path d="M57.1142 55.4566L64.8582 42.6362L72.6023 55.4566L64.8582 68.277L57.1142 55.4566Z" fill="#E53E3E"/>
<path d="M50.8697 55.4566L43.1256 42.6362L35.3816 55.4566L43.1256 68.277L50.8697 55.4566Z" fill="#E53E3E"/>
<path fill-rule="evenodd" clip-rule="evenodd" d="M91.9774 95.8679C99.7752 88.5368 105.451 78.974 107.984 68.1998L100.964 64.2813C102.211 58.294 102.211 52.5563 100.964 46.569L107.971 42.6577C105.427 31.8867 99.7416 22.3294 91.9356 15.0056L84.9977 18.8779C80.5073 15.136 75.5179 12.1423 70.0296 10.1465V2.3522C64.9546 0.822247 59.573 0 53.9992 0C48.4726 0 43.1348 0.808473 38.0976 2.31349V10.1465C32.3599 12.1423 27.3705 15.136 22.88 19.1274L15.9588 15.1035C8.19195 22.4279 2.53931 31.9699 0.0129767 42.7173L6.91407 46.569C5.91616 52.5563 5.91616 58.294 6.91407 64.2813L0 68.1402C2.52177 78.9182 8.18702 88.4865 15.9761 95.8257L22.88 91.9722C27.3705 95.7143 32.3599 98.708 38.0976 100.704V108.599C43.1348 110.104 48.4726 110.913 53.9992 110.913C59.573 110.913 64.9546 110.091 70.0296 108.561V100.704C75.5179 98.708 80.5073 95.7143 84.9977 91.9722L91.9774 95.8679ZM53.9921 96.3633C76.5843 96.3633 94.899 78.0487 94.899 55.4564C94.899 32.8641 76.5843 14.5495 53.9921 14.5495C31.3998 14.5495 13.0852 32.8641 13.0852 55.4564C13.0852 78.0487 31.3998 96.3633 53.9921 96.3633Z" fill="#E53E3E"/>
</svg>
